<svg width="88" height="60" viewBox="0 0 88 60" fill="none" xmlns="http://www.w3.org/2000/svg">
<path d="M86.188 0.550781H1.81299C1.39893 0.550781 1.00049 0.714841 0.707488 1.00781C0.414518 1.30078 0.250458 1.69922 0.250458 2.11331V57.8863C0.250458 58.3004 0.414518 58.6988 0.707488 58.9918C1.00046 59.2848 1.3989 59.4488 1.81299 59.4488H86.188C86.602 59.4488 87.0005 59.2848 87.2935 58.9918C87.5865 58.6988 87.7505 58.3004 87.7505 57.8863V2.11331C87.7505 1.69925 87.5865 1.30081 87.2935 1.00781C87.0005 0.714841 86.6021 0.550781 86.188 0.550781ZM84.6255 56.3238H3.37549V3.67578H84.6255V56.3238Z" fill="black"/>
<path d="M11.562 51.4022H76.437C76.8511 51.4022 77.2495 51.2382 77.5425 50.9452C77.8355 50.6522 77.9995 50.2538 77.9995 49.8397V10.1597C77.9995 9.74564 77.8355 9.3472 77.5425 9.0542C77.2495 8.76123 76.8511 8.59717 76.437 8.59717H11.562C11.148 8.59717 10.7495 8.76123 10.4565 9.0542C10.1635 9.34717 9.99948 9.74561 9.99948 10.1597V49.8397C9.99948 50.2538 10.1635 50.6522 10.4565 50.9452C10.7495 51.2382 11.1479 51.4022 11.562 51.4022ZM13.1245 48.2772V37.8512L32.4525 26.1322H32.4564C33.6986 25.3783 35.2689 25.4291 36.4603 26.265L53.5773 38.253H53.5734C54.2804 38.7257 55.2375 38.546 55.7257 37.8507C56.214 37.1515 56.0538 36.1905 55.3663 35.6905L50.8819 32.5499L61.9439 27.464C63.0259 26.964 64.2837 27.0265 65.315 27.6242L74.8697 33.1711V48.2801L13.1245 48.2772ZM74.8745 11.7222V29.5542L66.8862 24.9214C64.976 23.812 62.6479 23.7026 60.6401 24.6245L47.9171 30.4762L38.2491 23.7027C36.0421 22.1636 33.1358 22.066 30.835 23.4606L13.124 34.1986V11.7216L74.8745 11.7222Z" fill="black"/>
<path d="M48.902 25.1988C51.8317 25.1675 54.195 22.7808 54.195 19.8472C54.195 16.9136 51.8317 14.5269 48.902 14.4917C45.9684 14.5269 43.609 16.9136 43.609 19.8472C43.609 22.7808 45.9684 25.1675 48.902 25.1988ZM48.902 17.6168C50.1168 17.6363 51.0973 18.6285 51.0973 19.8473C51.0973 21.0661 50.1168 22.0582 48.902 22.0739C47.6832 22.0583 46.7067 21.0661 46.7067 19.8473C46.7067 18.6285 47.6833 17.6364 48.902 17.6168Z" fill="black"/>
</svg>
