<svg width="88" height="88" viewBox="0 0 88 88" fill="none" xmlns="http://www.w3.org/2000/svg">
<path d="M44.0625 88C45.912 87.9996 47.7551 87.3036 49.1563 85.9062L59.0313 76.0312L85.9688 49.1875C86.0246 49.1282 86.0768 49.0656 86.125 49C88.4012 46.1231 88.7793 41.803 85.9688 39L76.0625 29.125C73.2589 26.3248 68.6778 26.33 65.875 29.125L44.0625 50.875L22.2188 29.125C20.8167 27.7267 18.9689 27 17.125 27C15.2812 27 13.4324 27.7276 12.0313 29.125L2.12502 38.9687C-0.678761 41.765 -0.67875 46.36 2.12502 49.1562L29.0625 76.0312L38.9375 85.9062C40.3391 87.3062 42.213 88.0004 44.0625 88ZM44.0625 84.0312C43.2463 84.0317 42.4233 83.7038 41.7813 83.0625L31.875 73.1875L4.93752 46.3437C3.65409 45.0638 3.6541 43.0925 4.93752 41.8125L14.8438 31.9375C15.4862 31.2967 16.3012 31 17.125 31C17.9489 31 18.7647 31.2976 19.4063 31.9375L42.625 55.125C42.811 55.313 43.0325 55.4622 43.2765 55.5641C43.5206 55.666 43.7824 55.7184 44.0469 55.7184C44.3114 55.7184 44.5732 55.666 44.8173 55.5641C45.0613 55.4622 45.2828 55.313 45.4688 55.125L68.6875 31.9375C69.972 30.6565 71.9664 30.6555 73.25 31.9375L83.1563 41.8125C84.4165 43.0693 84.2881 44.8392 83.0313 46.4688L56.2188 73.1875L46.3125 83.0625C45.6701 83.7032 44.8787 84.0308 44.0625 84.0312ZM44 34C53.3652 34 61 26.3651 61 17C61 7.6348 53.3652 0 44 0C34.6349 0 27 7.6348 27 17C27 26.3651 34.6349 34 44 34ZM44 30C36.7966 30 31 24.2034 31 17C31 9.7966 36.7966 4 44 4C51.2034 4 57 9.7966 57 17C57 24.2034 51.2034 30 44 30ZM44 20.2812C45.8096 20.2812 47.2813 18.8096 47.2813 17C47.2813 15.1904 45.8096 13.7188 44 13.7188C42.1904 13.7188 40.7188 15.1904 40.7188 17C40.7188 18.8096 42.1904 20.2812 44 20.2812Z" fill="black"/>
</svg>
