<svg width="6" height="6" viewBox="0 0 6 6" fill="none" xmlns="http://www.w3.org/2000/svg">
<path fill-rule="evenodd" clip-rule="evenodd" d="M3.6826 0.645508C3.10476 0.645508 2.5268 0.864936 2.08735 1.30438C1.27168 2.12005 1.21333 3.4127 1.91165 4.29697L0.723607 5.48501C0.698967 5.50958 0.679418 5.53878 0.666079 5.57093C0.65274 5.60307 0.645874 5.63753 0.645874 5.67233C0.645874 5.70714 0.65274 5.7416 0.666079 5.77374C0.679418 5.80588 0.698967 5.83508 0.723607 5.85966C0.748194 5.88438 0.777424 5.90399 0.809616 5.91738C0.841809 5.93076 0.876329 5.93765 0.911193 5.93765C0.946057 5.93765 0.980577 5.93076 1.01277 5.91738C1.04496 5.90399 1.07419 5.88438 1.09878 5.85966L2.28682 4.67162C3.17122 5.36888 4.46366 5.31165 5.27888 4.49644C6.15778 3.61754 6.15674 2.18328 5.27782 1.30438C4.83838 0.864936 4.26044 0.645508 3.6826 0.645508ZM3.68313 1.17054C4.12474 1.1702 4.56642 1.33915 4.90476 1.67749C5.58143 2.35416 5.58143 3.44511 4.90476 4.12178C4.22808 4.79845 3.13817 4.79742 2.4615 4.12078C1.78482 3.44411 1.78482 2.35574 2.4615 1.67907C2.79984 1.34073 3.24152 1.17089 3.68313 1.17054Z" fill="black"/>
</svg>
