<svg width="64" height="64" viewBox="0 0 64 64" fill="none" xmlns="http://www.w3.org/2000/svg">
<path d="M54 2.23017C39.4557 -0.729717 24.4643 -0.729717 9.91998 2.23017C8.01744 2.62839 6.27401 3.57734 4.90668 4.95889C3.53935 6.34044 2.6085 8.0936 2.22998 10.0002C-0.7299 24.5444 -0.7299 39.5359 2.22998 54.0802C2.62821 55.9827 3.57715 57.7261 4.95871 59.0935C6.34026 60.4608 8.09342 61.3916 9.99998 61.7702C17.2408 63.2439 24.6107 63.991 32 64.0002C39.3889 63.9943 46.7588 63.2506 54 61.7802C55.9185 61.3953 57.6802 60.4512 59.063 59.0666C60.4457 57.6821 61.3876 55.9192 61.77 54.0002C64.7299 39.4559 64.7299 24.4644 61.77 9.92017C61.3718 8.01762 60.4228 6.27419 59.0413 4.90686C57.6597 3.53953 55.9066 2.60868 54 2.23017ZM6.14998 10.7602C6.3816 9.62433 6.94213 8.58169 7.76182 7.762C8.5815 6.94231 9.62415 6.38178 10.76 6.15017C12.48 5.81017 14.21 5.50017 15.94 5.24017L5.23998 15.9402C5.49998 14.2102 5.80998 12.4802 6.14998 10.7602ZM4.45998 22.3702L22.37 4.46017C23.93 4.32017 25.48 4.20017 27.04 4.13017L4.12998 27.0002C4.19998 25.4802 4.31998 23.9302 4.45998 22.3702ZM3.99998 32.8102L32.81 4.00017C34.22 4.00017 35.63 4.05017 37.04 4.11017L4.12998 37.0002C4.06998 35.6302 3.99998 34.2202 3.99998 32.8102ZM4.49998 42.3102L42.31 4.52017C43.61 4.64017 44.9 4.80017 46.2 4.97017L4.99998 46.2002C4.79998 44.9002 4.63998 43.6102 4.51998 42.3102H4.49998ZM6.12998 53.2402C5.98998 52.5202 5.85998 51.8002 5.71998 51.0802L51.08 5.74017L53.24 6.15017C53.6998 6.2508 54.1462 6.40519 54.57 6.61017L6.56998 54.6102C6.37576 54.1719 6.23475 53.712 6.14998 53.2402H6.12998ZM10.74 57.8502C10.2801 57.7495 9.83374 57.5951 9.40998 57.3902L57.41 9.39017C57.615 9.81392 57.7694 10.2603 57.87 10.7202C58.01 11.4402 58.14 12.1602 58.28 12.8802L12.92 58.2602L10.74 57.8502ZM17.74 59.0302L59 17.8002C59.17 19.1002 59.33 20.3902 59.45 21.6902L21.69 59.4802C20.39 59.3602 19.1 59.2002 17.8 59.0002L17.74 59.0302ZM57.79 53.2402C57.5584 54.376 56.9978 55.4186 56.1782 56.2383C55.3585 57.058 54.3158 57.6186 53.18 57.8502C51.46 58.1902 49.73 58.5002 48 58.7602L58.7 48.0602C58.5 49.7902 58.19 51.5202 57.85 53.2402H57.79ZM59.48 41.6302L41.63 59.5402C40.07 59.6802 38.52 59.8002 36.96 59.8702L59.87 37.0002C59.8 38.5202 59.68 40.0702 59.54 41.6302H59.48ZM31.19 60.0002C29.78 60.0002 28.37 60.0002 26.96 59.8902L59.87 27.0002C59.93 28.4102 59.97 29.8202 59.98 31.2302L31.19 60.0002Z" fill="black"/>
</svg>
