<svg width="88" height="88" viewBox="0 0 88 88" fill="none" xmlns="http://www.w3.org/2000/svg">
<path d="M43.9375 1.47825e-07C42.088 0.000370148 40.2449 0.6964 38.8437 2.09375L28.9687 11.9688L2.03124 38.8125C1.97539 38.8718 1.9232 38.9344 1.87499 39C-0.401218 41.8769 -0.779302 46.197 2.03124 49L11.9375 58.875C14.7411 61.6752 19.3222 61.67 22.125 58.875L43.9375 37.125L65.7812 58.875C67.1833 60.2733 69.0311 61 70.875 61C72.7188 61 74.5676 60.2724 75.9687 58.875L85.875 49.0312C88.6788 46.235 88.6787 41.64 85.875 38.8438L58.9375 11.9688L49.0625 2.09375C47.6609 0.69383 45.787 -0.000369852 43.9375 1.47825e-07ZM43.9375 3.96875C44.7537 3.96834 45.5767 4.29624 46.2187 4.9375L56.125 14.8125L83.0625 41.6562C84.3459 42.9362 84.3459 44.9075 83.0625 46.1875L73.1562 56.0625C72.5138 56.7033 71.6988 57 70.875 57C70.0511 57 69.2353 56.7024 68.5937 56.0625L45.375 32.875C45.189 32.687 44.9675 32.5378 44.7235 32.4359C44.4794 32.334 44.2176 32.2816 43.9531 32.2816C43.6886 32.2816 43.4268 32.334 43.1827 32.4359C42.9387 32.5378 42.7172 32.687 42.5312 32.875L19.3125 56.0625C18.028 57.3435 16.0336 57.3445 14.75 56.0625L4.84374 46.1875C3.58351 44.9307 3.71188 43.1608 4.96874 41.5312L31.7812 14.8125L41.6875 4.9375C42.3299 4.29679 43.1213 3.96916 43.9375 3.96875ZM44 54C34.6348 54 27 61.6349 27 71C27 80.3652 34.6348 88 44 88C53.3651 88 61 80.3652 61 71C61 61.6349 53.3651 54 44 54ZM44 58C51.2034 58 57 63.7966 57 71C57 78.2034 51.2034 84 44 84C36.7966 84 31 78.2034 31 71C31 63.7966 36.7966 58 44 58ZM44 67.7188C42.1904 67.7188 40.7187 69.1904 40.7187 71C40.7187 72.8096 42.1904 74.2812 44 74.2812C45.8096 74.2812 47.2812 72.8096 47.2812 71C47.2812 69.1904 45.8096 67.7188 44 67.7188Z" fill="black"/>
</svg>
