<svg width="82" height="82" viewBox="0 0 82 82" fill="none" xmlns="http://www.w3.org/2000/svg">
<path d="M54.8725 40.7425L78.5325 17.0825C82.4425 13.1725 82.4425 6.8425 78.5325 2.9425C74.6225 -0.9575 68.2925 -0.9575 64.3925 2.9425L40.7325 26.6025L17.0725 2.9325C13.1625 -0.9775 6.8325 -0.9775 2.9325 2.9325C-0.9675 6.8425 -0.9675 13.1725 2.9325 17.0725L26.5925 40.7325L2.9325 64.3925C-0.9775 68.3025 -0.9775 74.6325 2.9325 78.5325C6.8425 82.4325 13.1725 82.4325 17.0725 78.5325L40.7325 54.8725L64.3925 78.5325C68.3025 82.4425 74.6325 82.4425 78.5325 78.5325C82.4325 74.6225 82.4325 68.2925 78.5325 64.3925L54.8725 40.7325V40.7425Z" fill="black"/>
</svg>
